<svg class="img-fluid" xmlns="http://www.w3.org/2000/svg" style="transform:matrix(.769231,0,0,.769231,0,0);transform-origin:50% 50% 0;cursor:move;max-height:none;transition:none 0s ease 0s" width="512" height="512" viewBox="0 0 5120 5120"><path d="M1240 3625v-105h-220V1610h220v-210h840v210h1700v430h850v410h-210v430h-210v419l-107 3-108 3-3 108-3 107h-209v210H1240v-105zm2520-240v-105h210v-430h210v-420h210v-160l-1138 2-1137 3-3 108-3 107h-209v420h-210v430h-104c-118 0-116-2-116 98v52h2290v-105zm-2346-121c3-9 6-105 6-215v-199h210v-420h210v-430h1700v-150H1840v-210l-182 2-183 3-3 103-3 102h-209v1430h74c58 0 75-3 80-16z" fill="#04000D" style="transform:none"/><path d="M1442 3345c1-27 6-35 20-35s18 8 18 35c0 28-4 35-20 35s-19-6-18-35zm-212-780v-745h209l3-102 3-103 213-3 212-2v210h1700v210H1870v211c0 202 1 211 20 216 11 3 20 12 20 19 0 8-9 14-20 14s-20-7-20-15c0-12-18-15-105-15h-105v420h30c23 0 30 4 30 20 0 15-7 20-29 20-20 0-30-6-34-20-5-18-14-20-106-20h-101v199c0 110-3 206-6 215-5 13-25 16-110 16h-104v-745z" fill="#8C78E1" style="transform:none"/><path d="m1442 3418 3-103 108-3 107-3v-208c0-242-13-221 128-221h82v-420h209l3-107 3-108h2337v210l-106 3-106 3v419h-210v430h-210v210H1438l4-102z" fill="#B69CFF" style="transform:none"/></svg>